<!-- Generator: Adobe Illustrator 19.2.1, SVG Export Plug-In  -->
<svg version="1.1"
	 xmlns="http://www.w3.org/2000/svg" xmlns:xlink="http://www.w3.org/1999/xlink" xmlns:a="http://ns.adobe.com/AdobeSVGViewerExtensions/3.0/"
	 x="0px" y="0px" width="91.5px" height="36.2px" viewBox="0 0 91.5 36.2" style="enable-background:new 0 0 91.5 36.2;"
	 xml:space="preserve">
<style type="text/css">
	.st0{opacity:0.35;}
	.st1{fill:#FFFFFF;}
</style>
<defs>
</defs>
<g class="st0">
	<path class="st1" d="M76.2,31.8c-0.6,0-1.1,0.5-1.1,1.1c0,0.6,0.5,1.1,1.1,1.1c0.6,0,1.1-0.5,1.1-1.1
		C77.2,32.3,76.8,31.8,76.2,31.8z M76.2,33.6c-0.4,0-0.7-0.3-0.7-0.7c0-0.4,0.3-0.7,0.7-0.7c0.4,0,0.7,0.3,0.7,0.7
		C76.8,33.3,76.5,33.6,76.2,33.6z"/>
	<rect x="74.6" y="10.7" class="st1" width="3.2" height="0.4"/>
	<circle class="st1" cx="50.6" cy="2" r="0.5"/>
	<circle class="st1" cx="52.6" cy="26.4" r="0.5"/>
	<circle class="st1" cx="50.6" cy="26.4" r="0.5"/>
	<circle class="st1" cx="48.7" cy="26.4" r="0.5"/>
	<circle class="st1" cx="18.6" cy="12.4" r="0.5"/>
	<circle class="st1" cx="34.5" cy="33.1" r="0.5"/>
	<circle class="st1" cx="32.5" cy="33.1" r="0.5"/>
	<circle class="st1" cx="30.5" cy="33.1" r="0.5"/>
	<path class="st1" d="M86.3,33.3c-0.5,0-0.8,0.4-0.8,0.8c0,0.5,0.4,0.8,0.8,0.8c0.5,0,0.8-0.4,0.8-0.8
		C87.2,33.7,86.8,33.3,86.3,33.3z M86.3,34.6c-0.2,0-0.4-0.2-0.4-0.4c0-0.2,0.2-0.4,0.4-0.4c0.2,0,0.4,0.2,0.4,0.4
		C86.8,34.4,86.6,34.6,86.3,34.6z"/>
	<path class="st1" d="M89.4,18.3h-4.1v-7.2c0-1.1-0.9-2-2-2h-12V2c0-1.1-0.9-2-2-2H31.9c-1.1,0-2,0.9-2,2v8.6H4.7c-1.1,0-2,0.9-2,2
		v18.7H0v2c0,1.1,0.9,2,2,2h33.2c1.1,0,2-0.9,2-2v-2h-2.8v-2.8h12.4v4.3c0,0.9-0.7,1.6-1.6,1.6h-1.8H42v0.8h1.4h1.8h10.9h1.8h1.4
		v-0.8h-1.4h-1.8c-0.9,0-1.6-0.7-1.6-1.6v-4.3H67v4.7c0,1.1,0.9,2,2,2h12.5c0.4,0.6,1,1,1.7,1h6.2c1.1,0,2-0.9,2-2V20.3
		C91.5,19.2,90.6,18.3,89.4,18.3z M90.7,20.3L90.7,20.3l-8.7,0v0c0-0.7,0.6-1.3,1.3-1.3h6.2C90.1,19.1,90.7,19.6,90.7,20.3z
		 M82,20.7h8.7v11.8H82V20.7z M83.2,18.3c-1.1,0-2,0.9-2,2v10.6H67.8V12.1h16.8v6.2H83.2z M84.6,11.1v0.6H67.8v-0.6
		c0-0.7,0.5-1.2,1.2-1.2h14.4C84,9.9,84.6,10.4,84.6,11.1z M31.9,0.8h37.5c0.7,0,1.2,0.5,1.2,1.2v1.1H30.7V2
		C30.7,1.3,31.2,0.8,31.9,0.8z M30.7,3.5h39.9v5.6h-1.6c-1.1,0-2,0.9-2,2v13.8H34.4V12.5c0-1.1-0.9-2-2-2h-1.7V3.5z M4.7,11.4h27.7
		c0.7,0,1.2,0.5,1.2,1.2v0.9h-30v-0.9C3.6,11.9,4.1,11.4,4.7,11.4z M36.4,33.2c0,0.7-0.5,1.2-1.2,1.2H2c-0.7,0-1.2-0.5-1.2-1.2V32
		h15.4v1.2h4.7V32h15.4V33.2z M16.6,32h4v0.8h-4V32z M3.6,31.2V13.8h30v17.4H3.6z M54.3,34.4H47c0.4-0.4,0.6-1,0.6-1.6v-4.3h6.1v4.3
		C53.7,33.4,53.9,34,54.3,34.4z M34.4,27.7v-2.4H67v2.4H34.4z M68.9,34.4c-0.7,0-1.2-0.5-1.2-1.2v-1.9h13.4v2.8c0,0.1,0,0.2,0,0.3
		H68.9z M89.4,35.4h-6.2c-0.7,0-1.3-0.6-1.3-1.3v-1.2h8.7v1.2C90.7,34.8,90.1,35.4,89.4,35.4z"/>
	<rect x="85.3" y="19.6" class="st1" width="2" height="0.4"/>
</g>
</svg>
