<!-- Generator: Adobe Illustrator 19.2.1, SVG Export Plug-In  -->
<svg version="1.1"
	 xmlns="http://www.w3.org/2000/svg" xmlns:xlink="http://www.w3.org/1999/xlink" xmlns:a="http://ns.adobe.com/AdobeSVGViewerExtensions/3.0/"
	 x="0px" y="0px" width="92.1px" height="36.8px" viewBox="0 0 92.1 36.8" style="enable-background:new 0 0 92.1 36.8;"
	 xml:space="preserve">
<style type="text/css">
	.st0{fill:none;stroke:#DD1B71;stroke-width:0.6;stroke-miterlimit:10;}
</style>
<defs>
</defs>
<g>
	<path class="st0" d="M76.5,32.1c-0.6,0-1.1,0.5-1.1,1.1c0,0.6,0.5,1.1,1.1,1.1c0.6,0,1.1-0.5,1.1-1.1
		C77.5,32.6,77.1,32.1,76.5,32.1z M76.5,33.9c-0.4,0-0.7-0.3-0.7-0.7c0-0.4,0.3-0.7,0.7-0.7c0.4,0,0.7,0.3,0.7,0.7
		C77.1,33.6,76.8,33.9,76.5,33.9z"/>
	<rect x="74.9" y="11" class="st0" width="3.2" height="0.4"/>
	<circle class="st0" cx="50.9" cy="2.3" r="0.5"/>
	<circle class="st0" cx="52.9" cy="26.7" r="0.5"/>
	<circle class="st0" cx="50.9" cy="26.7" r="0.5"/>
	<circle class="st0" cx="49" cy="26.7" r="0.5"/>
	<circle class="st0" cx="18.9" cy="12.7" r="0.5"/>
	<circle class="st0" cx="34.8" cy="33.4" r="0.5"/>
	<circle class="st0" cx="32.8" cy="33.4" r="0.5"/>
	<circle class="st0" cx="30.8" cy="33.4" r="0.5"/>
	<path class="st0" d="M86.6,33.6c-0.5,0-0.8,0.4-0.8,0.8c0,0.5,0.4,0.8,0.8,0.8c0.5,0,0.8-0.4,0.8-0.8C87.5,34,87.1,33.6,86.6,33.6z
		 M86.6,34.9c-0.2,0-0.4-0.2-0.4-0.4c0-0.2,0.2-0.4,0.4-0.4c0.2,0,0.4,0.2,0.4,0.4C87.1,34.7,86.9,34.9,86.6,34.9z"/>
	<path class="st0" d="M89.7,18.6h-4.1v-7.2c0-1.1-0.9-2-2-2h-12V2.3c0-1.1-0.9-2-2-2H32.2c-1.1,0-2,0.9-2,2v8.6H5c-1.1,0-2,0.9-2,2
		v18.7H0.3v2c0,1.1,0.9,2,2,2h33.2c1.1,0,2-0.9,2-2v-2h-2.8v-2.8h12.4v4.3c0,0.9-0.7,1.6-1.6,1.6h-1.8h-1.4v0.8h1.4h1.8h10.9h1.8
		h1.4v-0.8h-1.4h-1.8c-0.9,0-1.6-0.7-1.6-1.6v-4.3h12.5v4.7c0,1.1,0.9,2,2,2h12.5c0.4,0.6,1,1,1.7,1h6.2c1.1,0,2-0.9,2-2V20.6
		C91.8,19.5,90.9,18.6,89.7,18.6z M91,20.6L91,20.6l-8.7,0v0c0-0.7,0.6-1.3,1.3-1.3h6.2C90.4,19.4,91,19.9,91,20.6z M82.3,21H91
		v11.8h-8.7V21z M83.5,18.6c-1.1,0-2,0.9-2,2v10.6H68.1V12.4h16.8v6.2H83.5z M84.9,11.4V12H68.1v-0.6c0-0.7,0.5-1.2,1.2-1.2h14.4
		C84.3,10.2,84.9,10.7,84.9,11.4z M32.2,1.1h37.5c0.7,0,1.2,0.5,1.2,1.2v1.1H31V2.3C31,1.6,31.5,1.1,32.2,1.1z M31,3.8h39.9v5.6
		h-1.6c-1.1,0-2,0.9-2,2v13.8H34.7V12.8c0-1.1-0.9-2-2-2H31V3.8z M5,11.7h27.7c0.7,0,1.2,0.5,1.2,1.2v0.9h-30v-0.9
		C3.9,12.2,4.4,11.7,5,11.7z M36.7,33.5c0,0.7-0.5,1.2-1.2,1.2H2.3c-0.7,0-1.2-0.5-1.2-1.2v-1.2h15.4v1.2h4.7v-1.2h15.4V33.5z
		 M16.9,32.3h4v0.8h-4V32.3z M3.9,31.5V14.1h30v17.4H3.9z M54.6,34.7h-7.3c0.4-0.4,0.6-1,0.6-1.6v-4.3H54v4.3
		C54,33.7,54.2,34.3,54.6,34.7z M34.7,28v-2.4h32.6V28H34.7z M69.2,34.7c-0.7,0-1.2-0.5-1.2-1.2v-1.9h13.4v2.8c0,0.1,0,0.2,0,0.3
		H69.2z M89.7,35.7h-6.2c-0.7,0-1.3-0.6-1.3-1.3v-1.2H91v1.2C91,35.1,90.4,35.7,89.7,35.7z"/>
	<rect x="85.6" y="19.9" class="st0" width="2" height="0.4"/>
</g>
</svg>
