<!-- Generator: Adobe Illustrator 19.2.1, SVG Export Plug-In  -->
<svg version="1.1"
	 xmlns="http://www.w3.org/2000/svg" xmlns:xlink="http://www.w3.org/1999/xlink" xmlns:a="http://ns.adobe.com/AdobeSVGViewerExtensions/3.0/"
	 x="0px" y="0px" width="44px" height="37.4px" viewBox="0 0 44 37.4" style="enable-background:new 0 0 44 37.4;"
	 xml:space="preserve">
<style type="text/css">
	.st0{fill:#CC1B71;}
</style>
<defs>
</defs>
<g>
	<g>
		<path class="st0" d="M15.1,25c7-0.1,14.1-0.1,21.1-0.2c0.2,0,0.5-0.1,0.5-0.3c2.4-5.6,4.8-11.2,7.2-16.8c0.2-0.4,0-0.9-0.5-0.9
			c-10.2,0-20.5,0-30.7,0c-1.4,0-2.9,0-4.3,0c-0.4,0-0.8,0.4-0.6,0.8c2.3,5.6,4.5,11.3,6.8,16.9c0.3,0.7,1.5,0.4,1.2-0.3
			c-2.3-5.6-4.5-11.3-6.8-16.9C8.7,7.5,8.5,7.8,8.3,8C18.5,8,28.8,8,39,8c1.4,0,2.9,0,4.3,0c-0.2-0.3-0.4-0.6-0.5-0.9
			c-2.2,5.2-4.5,10.4-6.7,15.6c-0.1,0.2-0.5,0.8-0.4,1c0,0.3,0.5,0,0.3-0.1c-0.4-0.3-2.2,0-2.7,0c-3.6,0-7.1,0.1-10.7,0.1
			c-2.5,0-5.1,0-7.6,0.1C14.3,23.7,14.3,25,15.1,25z"/>
	</g>
	<g>
		<path class="st0" d="M12.1,33.1c0.2-3.9,6-3.9,6,0C18.1,37,12.3,37,12.1,33.1c0-0.8-1.3-0.8-1.2,0c0.1,2.3,1.8,4.3,4.3,4.3
			c2.3,0,4.3-1.9,4.3-4.3c0-2.2-1.8-4.1-4.1-4.2c-2.5-0.1-4.3,1.9-4.5,4.2C10.8,33.9,12,33.9,12.1,33.1z"/>
	</g>
	<g>
		<path class="st0" d="M33.1,33.1c0.2-3.9,6-3.9,6,0C39.2,37,33.4,37,33.1,33.1c0-0.8-1.3-0.8-1.2,0c0.1,2.3,1.8,4.3,4.3,4.3
			c2.3,0,4.3-1.9,4.3-4.3c0-2.2-1.8-4.1-4.1-4.2c-2.5-0.1-4.3,1.9-4.5,4.2C31.9,33.9,33.1,33.9,33.1,33.1z"/>
	</g>
	<g>
		<path class="st0" d="M10.4,11.1C9.1,7.6,7.7,4,6.3,0.5C6.1,0.1,5.7-0.1,5.4,0.1c-1.7,1-3.4,2-5.1,3c-0.7,0.4-0.1,1.5,0.6,1.1
			c1.7-1,3.4-2,5.1-3C5.7,1,5.4,0.9,5.1,0.8c1.4,3.6,2.8,7.1,4.2,10.7C9.5,12.2,10.7,11.9,10.4,11.1L10.4,11.1z"/>
	</g>
	<g>
		<path class="st0" d="M13.9,25.3c-1.7,1-3.3,1.9-5,2.9c-0.5,0.3-1.1,0.5-1.2,1.1c-0.2,0.8,0,1.9,0,2.7c0,0.3,0.3,0.6,0.6,0.6
			c0.6,0,1.2,0,1.8,0c0.8,0,0.8-1.2,0-1.2c-0.6,0-1.2,0-1.8,0c0.2,0.2,0.4,0.4,0.6,0.6c0-0.9,0-1.8,0-2.8c-0.1,0.2-0.2,0.4-0.3,0.5
			c2-1.1,3.9-2.3,5.9-3.4C15.2,26,14.6,24.9,13.9,25.3L13.9,25.3z"/>
	</g>
	<g>
		<path class="st0" d="M21.3,32.7c3.1,0,6.2,0,9.2,0c0.8,0,0.8-1.2,0-1.2c-3.1,0-6.2,0-9.2,0C20.5,31.4,20.5,32.7,21.3,32.7
			L21.3,32.7z"/>
	</g>
</g>
</svg>
