<!-- Generator: Adobe Illustrator 19.2.1, SVG Export Plug-In  -->
<svg version="1.1"
	 xmlns="http://www.w3.org/2000/svg" xmlns:xlink="http://www.w3.org/1999/xlink" xmlns:a="http://ns.adobe.com/AdobeSVGViewerExtensions/3.0/"
	 x="0px" y="0px" width="36.3px" height="17.1px" viewBox="0 0 36.3 17.1" style="enable-background:new 0 0 36.3 17.1;"
	 xml:space="preserve">
<style type="text/css">
	.st0{fill-rule:evenodd;clip-rule:evenodd;fill:#38023B;}
	.st1{fill-rule:evenodd;clip-rule:evenodd;fill:#FFFFFF;}
</style>
<defs>
</defs>
<g>
	<path class="st0" d="M32.7,17.1c0.7,0,1-0.5,1.2-1.1l2.4-15.3C36.3,0.3,36,0,35.5,0h-32C3,0,2.5,0.3,2.4,0.9L0,16.3
		c0,0.5,0.3,0.8,0.8,0.8H32.7L32.7,17.1z"/>
	<polygon class="st1" points="14.1,1.7 13.3,6.5 8,6.5 8.8,1.7 4.7,1.7 2.4,15.6 6.4,15.6 7.4,9.9 12.7,9.9 11.7,15.6 15.8,15.6 
		18.1,1.7 14.1,1.7 	"/>
	<path class="st1" d="M27.8,1.7h-7.7l-0.5,3.2h7.6c1.4,0,2,0.4,1.7,2.2L28.4,10c-0.3,1.5-1,2.4-2.5,2.4h-3.5l1-5.8h-4.1l-1.5,9.1H26
		c4.2,0,5.9-1.8,6.5-5.6L33,7.1C33.7,3.2,32,1.7,27.8,1.7L27.8,1.7z"/>
</g>
</svg>
