<!-- Generator: Adobe Illustrator 19.2.1, SVG Export Plug-In  -->
<svg version="1.1"
	 xmlns="http://www.w3.org/2000/svg" xmlns:xlink="http://www.w3.org/1999/xlink" xmlns:a="http://ns.adobe.com/AdobeSVGViewerExtensions/3.0/"
	 x="0px" y="0px" width="167px" height="45.3px" viewBox="0 0 167 45.3" style="enable-background:new 0 0 167 45.3;"
	 xml:space="preserve">
<style type="text/css">
	.st0{fill:#38023B;}
</style>
<defs>
</defs>
<polygon class="st0" points="45.7,0 45.7,8.6 24.5,20.8 24.5,12.2 "/>
<polygon class="st0" points="24.5,24.5 24.5,33 39,24.7 39,28.4 24.5,36.7 24.5,45.3 45.7,33.1 45.7,12.3 "/>
<path class="st0" d="M0,0v8.6v16v8.6l21.2,12.2v-8.6v-16v-8.6L0,0z M14.3,32.8l-7.5-4.3v-16l7.5,4.3V32.8z"/>
<path class="st0" d="M129.4,16c-1.8,0-3,0.9-3.9,2v-1.8H122v16.1h0l3.5-2V27c0.8,1,2,1.8,3.9,1.8c2.9,0,5.6-2.3,5.6-6.4v0
	C135,18.2,132.3,16,129.4,16 M131.5,22.4c0,2.1-1.4,3.4-3,3.4c-1.6,0-3-1.4-3-3.4v0c0-2.1,1.4-3.4,3-3.4
	C130.1,18.9,131.5,20.3,131.5,22.4L131.5,22.4z"/>
<path class="st0" d="M56.9,22.7L56.9,22.7c0-3.4,2.6-6.2,6.1-6.2c3.5,0,6,2.8,6,6.1v0c0,3.3-2.6,6.2-6.1,6.2
	C59.4,28.9,56.9,26,56.9,22.7 M67.8,22.7L67.8,22.7c0-2.9-2.1-5.2-4.9-5.2c-2.8,0-4.8,2.3-4.8,5.1v0c0,2.8,2.1,5.1,4.9,5.1
	C65.8,27.8,67.8,25.5,67.8,22.7"/>
<path class="st0" d="M71.6,16.8h1.1v2.6c1-1.5,2.5-2.9,4.9-2.9c2.8,0,5.7,2.3,5.7,6.1v0c0,3.8-2.9,6.2-5.7,6.2
	c-2.4,0-3.9-1.3-4.9-2.8v6.2h-1.1V16.8z M82.1,22.7L82.1,22.7c0-3.1-2.2-5.1-4.6-5.1c-2.4,0-4.8,2.1-4.8,5.1v0c0,3,2.4,5.1,4.8,5.1
	C80,27.8,82.1,25.9,82.1,22.7"/>
<path class="st0" d="M85.2,22.7L85.2,22.7c0-3.5,2.4-6.2,5.6-6.2c3.3,0,5.4,2.7,5.4,6.2c0,0.2,0,0.3,0,0.5h-9.8
	c0.2,2.9,2.3,4.6,4.6,4.6c1.8,0,3.1-0.8,4-1.8l0.8,0.7c-1.2,1.3-2.6,2.2-4.9,2.2C87.8,28.9,85.2,26.4,85.2,22.7 M94.9,22.1
	c-0.2-2.4-1.5-4.6-4.2-4.6c-2.3,0-4.1,2-4.3,4.6H94.9z"/>
<path class="st0" d="M98.6,16.8h1.1V19c0.8-1.4,2.1-2.5,4.3-2.5c3,0,4.7,2,4.7,4.9v7.2h-1.1v-7c0-2.4-1.4-4-3.7-4
	c-2.3,0-4.1,1.8-4.1,4.2v6.8h-1.1V16.8z"/>
<path class="st0" d="M110.3,26.9l1.5-2.3c1.3,1,2.8,1.5,3.9,1.5c1,0,1.5-0.4,1.5-0.9v0c0-0.8-1.2-1-2.6-1.4
	c-1.7-0.5-3.7-1.3-3.7-3.7v0c0-2.5,2-3.9,4.5-3.9c1.6,0,3.3,0.5,4.6,1.4l-1.3,2.4c-1.2-0.7-2.5-1.2-3.4-1.2c-0.9,0-1.3,0.4-1.3,0.9
	v0c0,0.7,1.2,1,2.5,1.5c1.7,0.6,3.7,1.4,3.7,3.7v0c0,2.8-2.1,4-4.7,4C113.9,28.8,112,28.2,110.3,26.9"/>
<path class="st0" d="M136.1,22.5L136.1,22.5c0-3.6,2.9-6.5,6.7-6.5c3.8,0,6.7,2.8,6.7,6.4v0c0,3.6-2.9,6.4-6.7,6.4
	C139,28.9,136.1,26,136.1,22.5 M146.1,22.5L146.1,22.5c0-1.9-1.3-3.5-3.3-3.5c-2,0-3.2,1.5-3.2,3.4v0c0,1.8,1.3,3.4,3.3,3.4
	C144.9,25.8,146.1,24.3,146.1,22.5"/>
<path class="st0" d="M151.2,16.2h3.5v2.5c0.7-1.7,1.9-2.8,4-2.7v3.7h-0.2c-2.3,0-3.8,1.4-3.8,4.4v4.6h-3.5V16.2z"/>
<path class="st0" d="M164.1,13L164.1,13l-3.5,2v1.1h-1.5v3h1.5v5.9c0,2.9,1.5,3.7,3.6,3.7c1.2,0,2-0.3,2.8-0.7v-2.8
	c-0.5,0.3-1.1,0.4-1.7,0.4c-0.8,0-1.1-0.4-1.1-1.2v-5.3h2.9v-3h-2.9V13z"/>
</svg>
