<!-- Generator: Adobe Illustrator 19.2.1, SVG Export Plug-In  -->
<svg version="1.1"
	 xmlns="http://www.w3.org/2000/svg" xmlns:xlink="http://www.w3.org/1999/xlink" xmlns:a="http://ns.adobe.com/AdobeSVGViewerExtensions/3.0/"
	 x="0px" y="0px" width="200.9px" height="54.5px" viewBox="0 0 200.9 54.5" style="enable-background:new 0 0 200.9 54.5;"
	 xml:space="preserve">
<style type="text/css">
	.st0{fill:#00F080;}
	.st1{fill:#FFFFFF;}
</style>
<defs>
</defs>
<g>
	<polygon class="st0" points="55,0 55,10.3 29.5,25 29.5,14.7 	"/>
	<polygon class="st0" points="29.5,29.4 29.5,39.7 46.9,29.8 46.9,34.2 29.5,44.2 29.5,54.5 55,39.8 55,14.8 	"/>
	<path class="st0" d="M0,0v10.3v19.2v10.3l0,0l25.5,14.7V44.2V25V14.7L0,0z M17.3,39.5l-9-5.2V15l9,5.2V39.5z"/>
	<g>
		<path class="st1" d="M155.7,19.2c-2.2,0-3.6,1-4.6,2.4v-2.1h-4.2v19.4h0l4.2-2.4v-4c1,1.2,2.4,2.2,4.6,2.2c3.5,0,6.8-2.7,6.8-7.7
			v-0.1C162.5,21.9,159.2,19.2,155.7,19.2z M158.2,27c0,2.5-1.7,4.1-3.6,4.1c-2,0-3.6-1.6-3.6-4.1v-0.1c0-2.5,1.6-4.1,3.6-4.1
			C156.6,22.8,158.2,24.4,158.2,27L158.2,27z"/>
		<path class="st1" d="M68.4,27.3L68.4,27.3c0-4,3.1-7.5,7.3-7.5c4.2,0,7.3,3.4,7.3,7.4v0.1c0,4-3.1,7.4-7.3,7.4
			C71.5,34.7,68.4,31.3,68.4,27.3z M81.5,27.3L81.5,27.3c0-3.5-2.6-6.2-5.8-6.2c-3.4,0-5.8,2.8-5.8,6.1v0.1c0,3.4,2.6,6.1,5.8,6.1
			C79.1,33.4,81.5,30.7,81.5,27.3z"/>
		<path class="st1" d="M86.2,20.2h1.4v3.2c1.2-1.9,3-3.5,5.8-3.5c3.4,0,6.9,2.8,6.9,7.4v0.1c0,4.6-3.5,7.4-6.9,7.4
			c-2.8,0-4.7-1.6-5.8-3.4v7.5h-1.4V20.2z M98.8,27.3L98.8,27.3c0-3.8-2.6-6.2-5.6-6.2c-2.9,0-5.8,2.5-5.8,6.1v0.1
			c0,3.6,2.8,6.1,5.8,6.1C96.3,33.4,98.8,31.2,98.8,27.3z"/>
		<path class="st1" d="M102.5,27.3L102.5,27.3c0-4.2,2.9-7.5,6.7-7.5c4,0,6.5,3.2,6.5,7.4c0,0.2,0,0.3,0,0.6h-11.8
			c0.3,3.5,2.8,5.6,5.6,5.6c2.2,0,3.7-1,4.9-2.2l0.9,0.8c-1.4,1.6-3.1,2.7-5.9,2.7C105.7,34.7,102.5,31.7,102.5,27.3z M114.2,26.6
			c-0.2-2.9-1.8-5.5-5.1-5.5c-2.8,0-5,2.4-5.2,5.5H114.2z"/>
		<path class="st1" d="M118.6,20.2h1.4v2.6c0.9-1.7,2.5-3,5.1-3c3.6,0,5.7,2.4,5.7,5.8v8.7h-1.4V26c0-2.9-1.6-4.8-4.5-4.8
			c-2.8,0-4.9,2.1-4.9,5.1v8.2h-1.4V20.2z"/>
		<path class="st1" d="M132.7,32.4l1.8-2.8c1.6,1.2,3.3,1.8,4.7,1.8c1.2,0,1.8-0.4,1.8-1.1v-0.1c0-0.9-1.4-1.2-3.1-1.7
			c-2.1-0.6-4.4-1.6-4.4-4.5V24c0-3,2.4-4.7,5.5-4.7c1.9,0,3.9,0.6,5.6,1.7l-1.6,2.9c-1.5-0.9-2.9-1.4-4-1.4c-1,0-1.6,0.4-1.6,1v0.1
			c0,0.8,1.4,1.2,3,1.8c2.1,0.7,4.5,1.7,4.5,4.4v0.1c0,3.3-2.5,4.8-5.7,4.8C137.1,34.7,134.7,34,132.7,32.4z"/>
		<path class="st1" d="M163.8,27L163.8,27c0-4.3,3.4-7.8,8.1-7.8c4.6,0,8,3.4,8,7.7V27c0,4.3-3.4,7.8-8.1,7.8
			C167.2,34.7,163.8,31.3,163.8,27z M175.8,27L175.8,27c0-2.3-1.6-4.2-3.9-4.2c-2.4,0-3.9,1.9-3.9,4.1V27c0,2.2,1.6,4.1,3.9,4.1
			C174.3,31.1,175.8,29.2,175.8,27z"/>
		<path class="st1" d="M181.9,19.5h4.2v3c0.9-2.1,2.3-3.4,4.8-3.3v4.4h-0.2c-2.8,0-4.5,1.7-4.5,5.3v5.5h-4.2V19.5z"/>
		<path class="st1" d="M197.4,15.7L197.4,15.7l-4.2,2.4v1.4h-1.8v3.6h1.8v7.1c0,3.4,1.8,4.5,4.3,4.5c1.4,0,2.4-0.3,3.3-0.9v-3.4
			c-0.6,0.3-1.3,0.5-2.1,0.5c-0.9,0-1.4-0.5-1.4-1.4v-6.4h3.5v-3.6h-3.5V15.7z"/>
	</g>
</g>
</svg>
