<!-- Generator: Adobe Illustrator 19.2.1, SVG Export Plug-In  -->
<svg version="1.1"
	 xmlns="http://www.w3.org/2000/svg" xmlns:xlink="http://www.w3.org/1999/xlink" xmlns:a="http://ns.adobe.com/AdobeSVGViewerExtensions/3.0/"
	 x="0px" y="0px" width="36.8px" height="24.5px" viewBox="0 0 36.8 24.5" style="enable-background:new 0 0 36.8 24.5;"
	 xml:space="preserve">
<style type="text/css">
	.st0{fill-rule:evenodd;clip-rule:evenodd;fill:#38023B;}
	.st1{fill-rule:evenodd;clip-rule:evenodd;fill:#FFFFFF;}
	.st2{opacity:0.2;fill-rule:evenodd;clip-rule:evenodd;fill:#FFFFFF;}
</style>
<defs>
</defs>
<path class="st0" d="M33.7,24.5H3.1c-1.7,0-3.1-1.4-3.1-3.1V3.1C0,1.4,1.4,0,3.1,0h30.6c1.7,0,3.1,1.4,3.1,3.1v18.3
	C36.8,23.1,35.4,24.5,33.7,24.5z"/>
<path class="st1" d="M22.9,4.1c-1.8,0-3.4,0.6-4.7,1.5c0.5,0.3,0.9,0.8,1.3,1.2h-2.7C16.6,7.2,16.3,7.6,16,8h4.4
	c0.2,0.4,0.4,0.8,0.6,1.2h-5.6c-0.2,0.4-0.3,0.8-0.4,1.2h6.4c0.1,0.4,0.1,0.8,0.2,1.2h-6.7c0,0.2,0,0.4,0,0.6s0,0.4,0,0.6h6.7
	c0,0.4-0.1,0.8-0.2,1.2H15c0.1,0.4,0.2,0.8,0.4,1.2H21c-0.2,0.4-0.4,0.8-0.6,1.2H16c0.3,0.4,0.6,0.8,0.9,1.2h2.7
	c-0.4,0.4-0.8,0.8-1.3,1.2c1.3,1,3,1.5,4.7,1.5c4.5,0,8.1-3.6,8.1-8.1S27.4,4.1,22.9,4.1z"/>
<path class="st2" d="M14.8,12.2c0-0.4,0-0.8,0-0.6h6.7c0-0.4-0.1-0.8-0.2-1.2H15c0.1-0.4,0.2-0.8,0.4-1.2H21
	c-0.2-0.4-0.4-0.8-0.6-1.2H16c0.3-0.4,0.6-0.8,0.9-1.2h2.7c-0.4-0.4-0.8-0.8-1.3-1.2l0,0c-1.3-1-3-1.5-4.7-1.5
	c-4.5,0-8.1,3.6-8.1,8.1s3.6,8.1,8.1,8.1c1.8,0,3.4-0.6,4.7-1.5l0,0c0.5-0.3,0.9-0.8,1.3-1.2h-2.7c-0.3-0.4-0.6-0.8-0.9-1.2h4.4
	c0.2-0.4,0.4-0.8,0.6-1.2h-5.6c-0.2-0.4-0.3-0.8-0.4-1.2h6.4c0.1-0.4,0.1-0.8,0.2-1.2h-6.7C14.9,13,14.8,12.6,14.8,12.2z"/>
</svg>
