<!-- Generator: Adobe Illustrator 19.2.1, SVG Export Plug-In  -->
<svg version="1.1"
	 xmlns="http://www.w3.org/2000/svg" xmlns:xlink="http://www.w3.org/1999/xlink" xmlns:a="http://ns.adobe.com/AdobeSVGViewerExtensions/3.0/"
	 x="0px" y="0px" width="23px" height="26.7px" viewBox="0 0 23 26.7" style="enable-background:new 0 0 23 26.7;"
	 xml:space="preserve">
<style type="text/css">
	.st0{fill:#38023B;}
	.st1{opacity:0.5;fill:#38023B;}
</style>
<defs>
</defs>
<g>
	<path class="st0" d="M6.1,23.9H1c-0.6,0-1.1-0.6-1-1.2L3.5,1.5C3.6,0.6,4.4,0,5.2,0h8.6c4.7,0,7.3,2.9,6.9,6.1l-0.3,1.7
		c-0.6,4.1-4.1,7.1-8.2,7.1H8.6c-0.6,0-1.1,0.4-1.2,1.1L6.1,23.9z"/>
	<path class="st1" d="M10.6,26.7H6.7c-0.5,0-0.9-0.5-0.9-1l2.9-18c0.1-0.7,0.8-1.3,1.5-1.3h6.8c4.1,0,6.3,2.5,5.9,5.3l-0.2,1.5
		c-0.5,3.5-3.5,6.1-7,6.1h-2c-0.5,0-1,0.4-1.1,0.9l-0.8,5.5C11.7,26.3,11.2,26.7,10.6,26.7z"/>
</g>
</svg>
