<!-- Generator: Adobe Illustrator 19.2.1, SVG Export Plug-In  -->
<svg version="1.1"
	 xmlns="http://www.w3.org/2000/svg" xmlns:xlink="http://www.w3.org/1999/xlink" xmlns:a="http://ns.adobe.com/AdobeSVGViewerExtensions/3.0/"
	 x="0px" y="0px" width="36.1px" height="37.4px" viewBox="0 0 36.1 37.4" style="enable-background:new 0 0 36.1 37.4;"
	 xml:space="preserve">
<style type="text/css">
	.st0{opacity:0.2;}
	.st1{fill:#FFFFFF;}
</style>
<defs>
</defs>
<g class="st0">
	<g>
		<path class="st1" d="M35.6,36.4c-7,0-14,0-21.1,0c0.2,0.2,0.3,0.3,0.5,0.5c0-7,0-14,0-21.1c-0.2,0.2-0.3,0.3-0.5,0.5
			c7,0,14,0,21.1,0c-0.2-0.2-0.3-0.3-0.5-0.5c0,7,0,14,0,21.1c0,0.6,0.9,0.6,0.9,0c0-7,0-14,0-21.1c0-0.3-0.2-0.5-0.5-0.5
			c-7,0-14,0-21.1,0c-0.3,0-0.5,0.2-0.5,0.5c0,7,0,14,0,21.1c0,0.3,0.2,0.5,0.5,0.5c7,0,14,0,21.1,0C36.2,37.4,36.2,36.4,35.6,36.4z
			"/>
	</g>
	<g>
		<path class="st1" d="M17.4,15.8c0-2.2,0-4.5,0-6.7c0-3.4-1.6-6.5-4.6-8.1C9.4-0.8,5.1-0.1,2.4,2.6C0.3,4.9,0,7.6,0,10.5
			c0,2.6,0,5.2,0,7.8c0,0.6,0.9,0.6,0.9,0c0-1.9,0-3.9,0-5.8C0.9,10.4,0.7,8,1.4,6c1.4-3.9,5.9-6,9.8-4.6c3.4,1.2,5.2,4.3,5.2,7.8
			c0,2.2,0,4.4,0,6.7C16.5,16.4,17.4,16.4,17.4,15.8L17.4,15.8z"/>
	</g>
	<g>
		<g>
			<path class="st1" d="M24.1,26.9c-1.8-1.2-1-4.1,1.2-3.8c2.1,0.2,2.4,2.9,0.7,3.9c-0.5,0.3,0,1.1,0.5,0.8c2.5-1.5,1.8-5.5-1.3-5.6
				c-3.2-0.1-4.1,3.9-1.6,5.6C24.1,28,24.6,27.2,24.1,26.9L24.1,26.9z"/>
		</g>
		<g>
			<path class="st1" d="M25.8,27.4c0,1.6,0,3.2,0,4.7c0.2-0.2,0.3-0.3,0.5-0.5c-0.8,0-1.6,0-2.3,0c0.2,0.2,0.3,0.3,0.5,0.5
				c0-1.5,0-3.1,0-4.6c0-0.6-0.9-0.6-0.9,0c0,1.5,0,3.1,0,4.6c0,0.3,0.2,0.5,0.5,0.5c0.8,0,1.6,0,2.3,0c0.3,0,0.5-0.2,0.5-0.5
				c0-1.6,0-3.2,0-4.7C26.7,26.8,25.8,26.8,25.8,27.4L25.8,27.4z"/>
		</g>
	</g>
</g>
</svg>
