<!-- Generator: Adobe Illustrator 19.2.1, SVG Export Plug-In  -->
<svg version="1.1"
	 xmlns="http://www.w3.org/2000/svg" xmlns:xlink="http://www.w3.org/1999/xlink" xmlns:a="http://ns.adobe.com/AdobeSVGViewerExtensions/3.0/"
	 x="0px" y="0px" width="43.7px" height="29.2px" viewBox="0 0 43.7 29.2" style="enable-background:new 0 0 43.7 29.2;"
	 xml:space="preserve">
<style type="text/css">
	.st0{fill-rule:evenodd;clip-rule:evenodd;fill:#38023B;}
	.st1{fill-rule:evenodd;clip-rule:evenodd;fill:#FFFFFF;}
</style>
<defs>
</defs>
<g>
	<path class="st0" d="M40.1,29.2H3.7c-2,0-3.7-1.6-3.7-3.7V3.7C0,1.6,1.6,0,3.7,0h36.4c2,0,3.7,1.6,3.7,3.7v21.8
		C43.7,27.5,42.1,29.2,40.1,29.2z"/>
	<g>
		<polygon class="st1" points="14.2,20.5 17.9,8.6 21.1,8.6 17.5,20.5 14.2,20.5 		"/>
		<path class="st1" d="M12.8,8.6l-2.9,5.1c-0.7,1.3-1.2,2-1.4,2.8h0c0.1-1.1-0.1-2.4-0.1-3.1L8,8.6H2.6L2.5,8.9
			C3.9,8.9,4.7,9.6,5,11L6,20.5h3.4l6.8-12H12.8L12.8,8.6z"/>
		<path class="st1" d="M38,20.5l-0.1-1.8l-4,0L33,20.5h-3.5l6.4-11.9h4.3l1.1,11.9H38L38,20.5z M37.6,13.5c0-0.9-0.1-2.1,0-2.8h0
			c-0.2,0.6-1,2.4-1.4,3.3l-1.2,2.6h2.8L37.6,13.5L37.6,13.5z"/>
		<path class="st1" d="M24.5,20.9c-2.3,0-3.8-0.7-4.9-1.4l1.5-2.4c1,0.5,1.7,1.2,3.5,1.2c0.6,0,1.1-0.1,1.4-0.7
			c0.5-0.8-0.1-1.2-1.4-1.9l-0.6-0.4c-1.9-1.3-2.7-2.5-1.8-4.6c0.6-1.4,2.1-2.4,4.5-2.4c1.7,0,3.3,0.7,4.2,1.4l-1.8,2.1
			c-0.9-0.7-1.7-1.1-2.5-1.1c-0.7,0-1.2,0.3-1.4,0.6c-0.3,0.7,0.1,1.1,1.1,1.7l0.7,0.5c2.3,1.4,2.8,2.9,2.2,4.3
			C28.4,20.3,26.5,20.9,24.5,20.9L24.5,20.9z"/>
	</g>
</g>
</svg>
